HIERARCHY
ROOT Hips
{
	OFFSET 0.00 0.00 0.00
	CHANNELS 6 Xposition Yposition Zposition Zrotation Xrotation Yrotation
	JOINT LeftUpLeg
	{
		OFFSET -0.0000 0.0000 -4.0122
		CHANNELS 3 Zrotation Xrotation Yrotation
		JOINT LeftLowLeg
		{
			OFFSET 0.0000 -17.8667 -3.1504
			CHANNELS 3 Zrotation Xrotation Yrotation
			JOINT LeftFoot
			{
				OFFSET 0.0000 -16.3749 -2.8873
				CHANNELS 3 Zrotation Xrotation Yrotation
				JOINT ltoes
				{
					OFFSET 5.9227 -3.3675 -0.5938
					CHANNELS 3 Zrotation Xrotation Yrotation
					End Site
					{
						OFFSET 3.9580 0.0000 0.0000
					}
				}
			}
		}
	}
	JOINT RightUpLeg
	{
		OFFSET 0.0000 0.0000 4.0122
		CHANNELS 3 Zrotation Xrotation Yrotation
		JOINT RightLowLeg
		{
			OFFSET -0.0000 -17.7908 3.1370
			CHANNELS 3 Zrotation Xrotation Yrotation
			JOINT RightFoot
			{
				OFFSET 0.0000 -16.5002 2.9094
				CHANNELS 3 Zrotation Xrotation Yrotation
				JOINT rtoes
				{
					OFFSET 5.7390 -3.2631 0.5754
					CHANNELS 3 Zrotation Xrotation Yrotation
					End Site
					{
						OFFSET 4.2293 0.0000 -0.0000
					}
				}
			}
		}
	}
	JOINT upperback
	{
		OFFSET 0.0000 0.0000 0.0000
		CHANNELS 3 Zrotation Xrotation Yrotation
		JOINT Chest
		{
			OFFSET -1.5371 10.3429 -0.1213
			CHANNELS 3 Zrotation Xrotation Yrotation
			JOINT Neck
			{
				OFFSET 0.5736 10.6318 -0.7589
				CHANNELS 3 Zrotation Xrotation Yrotation
				JOINT Head
				{
					OFFSET -0.1741 4.2217 0.1423
					CHANNELS 3 Zrotation Xrotation Yrotation
					End Site
					{
						OFFSET 0.4912 4.1605 0.1465
					}
				}
			}
			JOINT Chest
			{
				OFFSET 0.5736 10.6318 -0.7589
				CHANNELS 3 Zrotation Xrotation Yrotation
				JOINT LeftUpArm
				{
					OFFSET -0.0000 0.0000 -7.2422
					CHANNELS 3 Zrotation Xrotation Yrotation
					JOINT LeftLowArm
					{
						OFFSET -1.2117 -0.0000 -13.8493
						CHANNELS 3 Zrotation Xrotation Yrotation
						JOINT LeftHand
						{
							OFFSET 1.0710 -0.0000 -12.2418
							CHANNELS 3 Zrotation Xrotation Yrotation
							JOINT lfingers
							{
								OFFSET 0.1291 -0.0000 -1.4760
								CHANNELS 3 Zrotation Xrotation Yrotation
								End Site
								{
									OFFSET 0.1444 -0.0000 -1.6502
								}
							}
						}
					}
				}
			}
			JOINT Chest
			{
				OFFSET 0.5736 10.6318 -0.7589
				CHANNELS 3 Zrotation Xrotation Yrotation
				JOINT RightUpArm
				{
					OFFSET -0.0000 -0.0000 7.4537
					CHANNELS 3 Zrotation Xrotation Yrotation
					JOINT RightLowArm
					{
						OFFSET -1.1800 -0.0000 13.4870
						CHANNELS 3 Zrotation Xrotation Yrotation
						JOINT RightHand
						{
							OFFSET 1.0972 -0.0000 12.5410
							CHANNELS 3 Zrotation Xrotation Yrotation
							JOINT rfingers
							{
								OFFSET 0.1186 -0.0000 1.3551
								CHANNELS 3 Zrotation Xrotation Yrotation
								End Site
								{
									OFFSET 0.1325 -0.0000 1.5150
								}
							}
						}
					}
				}
			}
		}
	}
}
MOTION
Frames: 20
Frame Time: 0.033333
-5.3318 38.7360 6.8272 8.6734 8.4941 44.9541 4.2591 -16.1345 0.1799 -37.5720 -2.1013 6.1722 7.3563 -0.0346 -0.9160 -7.8248 -0.0941 1.3756 18.5196 6.2238 -0.7140 -62.3877 5.4497 -8.9890 -10.0349 -0.8715 4.3503 1.3847 0.0030 0.2441 -21.7624 -1.2809 -2.6696 4.1021 8.4101 -2.4925 -10.4469 3.1926 13.6066 11.5467 -12.8881 14.7716 -0.7482 -6.7446 -6.3452 -4.9748 -76.6826 -6.5961 -48.0699 30.2423 -19.3412 4.3227 -13.8664 22.5054 -2.4953 -26.4561 -0.5866 0.0767 -0.3567 12.1412 -5.1977 72.6016 -8.6682 -40.1276 -27.2086 23.4776 -0.0398 -0.8528 -7.6702 -2.4953 26.4561 0.5866 
-4.8507 38.7690 6.3580 8.2478 8.5544 45.3526 3.6309 -16.5258 -0.3595 -38.0605 -2.1544 6.2406 7.1091 -0.0134 -0.7318 -6.3087 -0.0612 1.1102 19.8376 6.7924 0.0435 -56.2383 4.5103 -8.4294 -8.9205 -0.6661 3.7201 0.2086 0.0001 0.0368 -22.0483 -1.9675 -3.4088 4.3813 9.1890 -3.1379 -11.0798 3.5066 14.2540 11.8791 -13.4883 15.4811 -0.7725 -6.8756 -6.4266 -3.9201 -76.6128 -6.9930 -48.2735 30.7917 -19.5380 4.2833 -14.0588 22.1357 -2.4953 -26.4561 -0.5866 0.0885 -0.4071 12.2646 -4.2726 72.5690 -10.6280 -41.0172 -27.1717 22.6998 -0.0363 -0.9771 -7.1266 -2.4953 26.4561 0.5866 
-4.3428 38.7983 5.8779 7.7958 8.5714 45.8982 2.9659 -16.7321 -0.5786 -38.3693 -2.1882 6.2837 7.0827 -0.0666 -1.1609 -5.2357 -0.0422 0.9219 20.4443 7.2095 0.6003 -48.7296 3.4530 -7.6157 -8.7787 -0.5941 3.2975 0.0282 0.0000 0.0050 -22.0929 -2.3382 -4.0231 4.1574 9.3723 -3.6566 -11.1876 3.4656 14.6104 12.0819 -13.3153 15.8427 -0.7694 -6.8005 -6.4706 -4.3612 -76.2560 -9.0505 -47.6331 31.0953 -20.2227 4.5000 -14.1569 22.8374 -2.4953 -26.4561 -0.5866 0.0345 -0.1600 12.1581 -2.4473 72.5322 -12.9460 -41.4643 -26.8521 22.0754 -0.0263 -0.6177 -7.4383 -2.4953 26.4561 0.5866 
-3.8055 38.7978 5.3437 7.7631 8.8967 46.2628 1.5392 -16.7841 -0.4453 -38.2541 -2.1756 6.2676 7.2882 -0.1488 -1.8034 -5.0068 -0.0386 0.8817 19.7265 7.3889 0.6643 -40.2329 2.3975 -6.5395 -9.1995 -0.6292 3.2945 0.0588 0.0000 0.0104 -22.5906 -2.4738 -4.4161 3.8278 9.2853 -3.9582 -11.0932 4.0272 14.9930 12.3282 -13.4720 16.2230 -0.7944 -6.7930 -6.6864 -2.6942 -75.9040 -8.8504 -47.3353 31.6304 -20.7963 4.3274 -13.6579 22.7694 -2.4953 -26.4561 -0.5866 -0.0274 0.1292 11.9623 0.2691 72.5294 -16.2328 -41.6001 -26.7160 21.8558 0.0050 0.0919 -8.0992 -2.4953 26.4561 0.5866 
-3.2692 38.7269 4.8115 7.4068 8.9325 46.3102 0.7674 -17.1017 -0.6959 -38.5482 -2.2080 6.3085 7.3764 -0.1230 -1.6003 -3.9152 -0.0236 0.6898 19.5262 7.5752 0.8912 -32.6333 1.5984 -5.4563 -10.1883 -0.6855 3.1145 0.7282 0.0008 0.1284 -22.7376 -2.7114 -4.6270 4.0437 9.2592 -4.1350 -10.7796 4.9234 15.0850 12.1625 -13.9541 16.2752 -0.8047 -6.7425 -6.8223 -0.6693 -75.8484 -7.7167 -47.9282 32.3076 -20.7549 3.9461 -12.9123 22.1555 -2.4953 -26.4561 -0.5866 -0.0470 0.2221 11.9537 1.3037 72.6469 -18.4230 -41.7473 -26.7322 21.7495 -0.0117 -0.2075 -8.2364 -2.4953 26.4561 0.5866 
-2.7068 38.6463 4.3230 6.6768 8.6859 46.4337 0.6061 -17.4896 -1.2204 -39.1623 -2.2763 6.3934 7.1300 -0.0764 -1.2405 -2.0492 -0.0065 0.3613 19.6684 7.8008 1.2396 -25.7672 1.0060 -4.3962 -11.1586 -0.5118 1.7124 1.7455 0.0047 0.3077 -22.3845 -3.0660 -4.8819 3.8669 9.7055 -4.3321 -10.7866 3.8711 15.5029 12.8068 -13.5534 16.8494 -0.7924 -6.8916 -6.5754 3.4038 -76.1994 -4.9197 -49.9466 33.8466 -20.0909 4.0613 -13.9344 21.4281 -2.4953 -26.4561 -0.5866 0.0949 -0.4457 12.0167 0.5550 73.0325 -18.4413 -40.9738 -26.4821 22.1780 -0.0272 -0.4094 -8.7985 -2.4953 26.4561 0.5866 
-2.0873 38.6054 3.7738 6.3477 8.9712 46.5112 -0.5453 -17.6569 -0.9135 -39.2745 -2.2888 6.4088 7.1545 -0.1409 -1.7508 -0.6823 -0.0007 0.1203 18.2541 7.8342 1.9207 -18.9661 0.5489 -3.2853 -11.4821 -0.1636 -0.1847 2.2461 0.0078 0.3960 -22.6353 -3.5131 -5.1937 3.7971 10.2438 -4.5489 -10.4506 3.3368 15.7558 12.6119 -13.4574 17.1404 -0.8295 -7.3837 -6.4282 9.3778 -76.4447 0.1404 -48.7792 34.3344 -21.2952 4.3508 -14.6417 21.7512 -2.4953 -26.4561 -0.5866 0.2967 -1.3845 12.0976 -0.7491 73.5404 -17.6282 -40.7473 -26.3550 22.2601 0.0189 0.2871 -8.7703 -2.4953 26.4561 0.5866 
-1.4523 38.5163 3.1998 5.6203 9.2409 46.7110 -0.7669 -18.2000 -1.0111 -40.9453 -2.4797 6.6356 6.9165 -0.1719 -2.0192 1.7175 -0.0045 -0.3028 17.4043 7.4097 1.8009 -13.7154 0.2882 -2.3961 -11.9606 0.1136 -1.5929 1.7981 0.0050 0.3170 -22.6131 -4.0020 -5.3848 4.4562 10.1913 -4.7154 -11.3198 2.9523 15.9254 13.3157 -12.7243 17.3060 -0.8944 -7.5461 -6.7798 12.7535 -76.4360 3.4908 -47.6148 34.3956 -22.2738 4.3261 -14.8525 21.4422 -2.4953 -26.4561 -0.5866 0.3461 -1.6164 12.0879 -0.3135 73.8395 -19.1502 -40.8866 -26.5289 22.2878 0.0145 0.2114 -8.9165 -2.4953 26.4561 0.5866 
-0.7192 38.4520 2.5986 5.0743 8.8627 47.1707 -1.3262 -18.0428 -1.1893 -41.5989 -2.5562 6.7228 7.1336 -0.2192 -2.3660 3.0325 -0.0141 -0.5345 16.3437 7.3972 1.7952 -9.6744 0.1437 -1.6980 -12.2106 0.3833 -2.7260 1.8835 0.0055 0.3321 -21.9145 -3.6768 -5.5375 4.8126 9.6271 -4.9857 -11.9224 3.1481 16.1178 13.8742 -12.3570 17.4688 -0.8886 -7.2749 -6.9831 14.5145 -76.4558 5.5605 -46.2718 34.3949 -23.3849 4.5748 -15.4692 21.6992 -2.4953 -26.4561 -0.5866 0.2488 -1.1650 12.0548 -0.1596 73.6559 -20.1151 -41.2139 -26.5585 22.0435 -0.0209 -0.3477 -8.4409 -2.4953 26.4561 0.5866 
0.1173 38.3674 1.9448 4.9706 9.3364 47.6473 -3.2601 -17.9067 -1.3078 -41.3628 -2.5284 6.6914 6.6182 -0.2958 -3.0840 4.4721 -0.0308 -0.7878 15.8437 7.2182 1.8399 -10.8825 0.1817 -1.9077 -10.5830 0.4190 -3.1638 0.2755 0.0001 0.0486 -22.0989 -3.8315 -5.8641 4.8316 9.6149 -5.2685 -11.7971 3.2540 16.2954 13.8075 -12.6964 17.6832 -0.8518 -6.9241 -7.0308 16.5470 -76.9955 7.8854 -45.5127 34.4347 -24.0494 4.3971 -14.4723 22.1024 -2.4953 -26.4561 -0.5866 0.1304 -0.6120 12.0290 0.9944 72.9759 -21.6570 -41.1708 -26.6095 22.1200 -0.0365 -0.5771 -8.6166 -2.4953 26.4561 0.5866 
0.9984 38.2495 1.2020 4.5899 10.3060 48.1848 -4.9619 -18.3190 -1.4632 -42.3720 -2.6479 6.8248 5.8886 -0.3463 -3.7652 6.8644 -0.0724 -1.2076 17.0633 6.4979 1.9739 -17.2090 0.4526 -2.9904 -8.5492 0.3519 -3.0700 0.1956 0.0001 0.0345 -22.2972 -4.6312 -6.4170 4.2950 10.4034 -5.6200 -10.4051 2.7507 16.5622 12.7412 -12.7220 17.9377 -0.7696 -6.8277 -6.4465 17.8043 -77.8749 8.8956 -45.7197 34.3804 -23.8405 4.2701 -14.7091 21.3867 -2.4953 -26.4561 -0.5866 0.3219 -1.5278 11.8996 1.0447 72.9964 -21.4728 -40.9185 -26.5818 22.3047 -0.0162 -0.2521 -8.6758 -2.4953 26.4561 0.5866 
1.9076 38.2362 0.5354 4.4122 9.4321 48.8135 -5.4150 -17.4588 -2.3589 -43.5953 -2.7959 6.9838 5.1346 -0.3097 -3.7595 9.9936 -0.1533 -1.7535 17.2680 7.1220 1.6411 -18.3872 0.5162 -3.1884 -10.4034 0.3735 -2.9431 -2.5274 0.0098 -0.4455 -21.1594 -3.7782 -6.3448 4.1797 10.4105 -5.7650 -9.9366 2.8008 16.6608 12.1927 -13.0502 18.0257 -0.7852 -7.0929 -6.3338 16.7797 -77.9511 8.0935 -46.6837 34.3313 -23.0026 4.2055 -14.9749 20.8850 -2.4953 -26.4561 -0.5866 0.2949 -1.4023 11.8763 1.8107 72.5950 -22.1962 -40.3570 -26.2106 22.4633 -0.0505 -0.7526 -8.8414 -2.4953 26.4561 0.5866 
2.9199 38.3391 -0.1433 4.9777 8.1990 48.8415 -6.0845 -15.6653 -2.9161 -44.3252 -2.8858 7.0771 2.8324 -0.2008 -3.9440 13.4460 -0.2770 -2.3499 16.9606 8.9567 2.1604 -19.5955 0.5856 -3.3902 -10.4750 0.3773 -2.9562 -8.9289 0.1225 -1.5682 -20.0882 -2.4795 -6.0174 4.2120 10.7537 -5.7388 -10.0524 2.7137 16.8895 11.8753 -13.3447 18.2591 -0.7952 -7.5415 -6.0369 16.9066 -78.1324 8.8290 -48.3162 34.2011 -21.5892 4.2098 -15.0584 20.8186 -2.4953 -26.4561 -0.5866 0.3467 -1.6278 12.0262 1.3193 72.2938 -21.2372 -41.0123 -25.6584 21.4687 -0.0494 -0.8023 -8.5237 -2.4953 26.4561 0.5866 
3.8818 38.4127 -0.8598 5.5147 8.0490 47.9311 -7.1494 -14.7703 -2.3899 -45.3183 -3.0100 7.2023 0.2360 -0.0458 -4.3610 17.0289 -0.4432 -2.9600 16.6434 10.3157 3.2294 -22.7583 0.7875 -3.9112 -8.6568 0.3863 -3.2700 -11.2044 0.1926 -1.9635 -20.0427 -2.1587 -5.5408 4.8951 10.7714 -5.4033 -11.0629 3.4013 17.0794 11.5511 -14.4028 18.4244 -0.8598 -7.7059 -6.3863 17.6454 -78.0390 11.1651 -47.9144 33.1901 -21.3069 4.1668 -14.0758 21.6759 -2.4953 -26.4561 -0.5866 0.2781 -1.2730 12.3232 2.0610 71.8098 -21.6432 -42.5740 -25.5179 20.1224 -0.0522 -0.7142 -9.1802 -2.4953 26.4561 0.5866 
4.8444 38.5659 -1.5727 5.9054 8.0311 47.2372 -7.6063 -13.4698 -0.7069 -46.4253 -3.1511 7.3393 -3.3276 0.3016 -5.9880 18.2623 -0.5092 -3.1675 15.7249 11.0616 2.8299 -24.7058 0.9260 -4.2264 -6.9324 0.2312 -2.4928 -11.6432 0.2079 -2.0393 -20.0295 -1.8577 -5.1313 5.1385 10.3922 -5.0623 -11.4704 3.9212 17.2071 11.7657 -14.6937 18.5424 -0.8090 -7.0810 -6.5349 17.1450 -78.4720 12.1295 -46.9220 32.3437 -21.5768 4.4036 -14.3434 22.2682 -2.4953 -26.4561 -0.5866 0.2704 -1.2704 12.0167 3.2864 71.9487 -21.7098 -43.5057 -25.5161 19.4105 -0.0114 -0.1435 -9.5528 -2.4953 26.4561 0.5866 
5.8017 38.7417 -2.1954 6.0796 7.8320 47.2170 -6.8104 -11.4431 1.2753 -48.4421 -3.4148 7.5819 -8.4482 1.2458 -8.6187 21.6875 -0.7159 -3.7361 14.5700 11.5628 1.9746 -25.3906 0.9772 -4.3361 -5.6908 0.1177 -1.6760 -12.9689 0.2578 -2.2679 -19.8936 -1.7054 -5.0722 5.2870 10.7227 -5.0640 -11.1960 3.4834 17.0924 11.6382 -13.9505 18.3755 -0.7388 -6.6810 -6.3249 9.1418 -79.0104 5.4006 -46.3530 31.6056 -21.5597 4.3975 -14.0111 22.6215 -2.4953 -26.4561 -0.5866 0.2926 -1.3774 11.9923 2.8632 71.9743 -20.3992 -42.5444 -25.4782 20.1133 -0.0894 -1.1378 -9.4928 -2.4953 26.4561 0.5866 
6.7114 38.8320 -2.7712 6.0256 7.9675 47.5909 -5.0407 -9.4039 3.2508 -51.8221 -3.8754 7.9674 -13.6531 2.7852 -11.2998 23.8023 -0.8604 -4.0808 13.8245 11.7478 1.0265 -26.9843 1.1016 -4.5890 -3.4239 0.0656 -1.3827 -14.3056 0.3134 -2.4971 -19.9528 -1.8168 -5.1707 5.4248 11.1134 -5.1714 -10.8554 2.9562 16.9785 11.5162 -13.6637 18.2839 -0.7441 -6.8533 -6.2118 -1.0294 -78.6679 -3.4804 -46.0229 31.5608 -21.7956 4.2623 -14.4171 21.6644 -2.4953 -26.4561 -0.5866 0.3516 -1.6383 12.1133 0.4033 72.1252 -17.3363 -40.8254 -25.8631 21.7900 -0.1070 -1.2468 -9.9035 -2.4953 26.4561 0.5866 
7.5888 38.8329 -3.2578 5.8004 8.0033 47.9414 -1.9200 -7.5742 4.4589 -56.8829 -4.6059 8.4927 -18.3748 4.3337 -12.3669 21.4634 -0.7013 -3.6992 13.6134 12.1944 0.7875 -29.2915 1.2941 -4.9490 -0.9093 0.0254 -1.5087 -14.5634 0.3248 -2.5412 -19.7866 -2.0241 -4.9747 5.2312 10.8711 -4.9156 -10.2385 3.1178 16.7284 11.1515 -13.2911 17.9433 -0.7840 -6.8061 -6.5865 -6.2214 -78.0092 -7.5378 -45.0715 31.7395 -22.6881 4.3597 -14.2720 22.1843 -2.4953 -26.4561 -0.5866 0.2788 -1.3247 11.8856 -2.6334 72.3057 -13.1653 -39.5855 -26.2020 23.1023 -0.2266 -2.9708 -9.3639 -2.4953 26.4561 0.5866 
8.4129 38.8121 -3.7565 6.1947 8.1402 48.1630 1.2542 -5.7064 4.9447 -62.3450 -5.4429 8.9854 -21.5424 5.1830 -12.0383 17.3284 -0.4588 -3.0105 12.5194 12.8410 0.6932 -30.8171 1.4293 -5.1827 1.1685 -0.0234 -1.1859 -14.8015 0.3354 -2.5818 -20.1570 -1.7246 -4.6600 5.1700 10.6356 -4.6206 -9.9846 3.0389 16.3443 10.7764 -13.2866 17.5244 -0.7605 -6.6756 -6.5140 -7.9000 -77.9273 -8.4329 -46.1386 32.4286 -22.2642 4.3627 -14.5532 21.8888 -2.4953 -26.4561 -0.5866 0.3078 -1.4589 11.9136 -7.8416 72.6149 -6.6799 -37.5771 -26.2123 24.8572 -0.1435 -1.7134 -9.7896 -2.4953 26.4561 0.5866 
9.1780 38.8266 -4.2633 6.6848 8.2054 48.0455 4.6435 -4.2969 4.9432 -67.3111 -6.2413 9.3626 -21.5297 4.7014 -10.7209 14.6740 -0.3297 -2.5601 10.9938 13.5739 0.6769 -31.4042 1.4830 -5.2717 2.9584 -0.0615 -0.9956 -15.7355 0.3788 -2.7409 -20.3942 -1.3796 -4.0988 4.8444 10.6145 -4.0748 -10.0029 2.9042 16.0582 10.8256 -13.7201 17.3117 -0.7647 -6.9267 -6.3158 -6.0762 -78.0651 -6.2920 -47.5776 32.7869 -21.3290 4.3931 -15.1669 21.3642 -2.4953 -26.4561 -0.5866 0.3691 -1.7283 12.0562 -13.1240 72.5405 -0.0323 -36.6587 -26.4144 25.8678 -0.1527 -2.0228 -9.3168 -2.4953 26.4561 0.5866 
